<svg fill="none" height="29" viewBox="0 0 29 29" width="29" xmlns="http://www.w3.org/2000/svg">
  <path
    d="M14.1663 24.0001C14.1656 22.1629 14.5635 20.3555 15.3231 18.7462C16.0827 17.1369 17.1791 15.7782 18.5103 14.7968C19.8414 13.8153 21.3638 13.243 22.9357 13.1332C24.5076 13.0234 26.0777 13.3798 27.4997 14.169V3.77786C27.4997 2.06675 26.2997 0.666748 24.833 0.666748H3.49967C2.03301 0.666748 0.833008 2.06675 0.833008 3.77786V22.4445C0.833008 24.1556 2.03301 25.5556 3.49967 25.5556H14.273C14.2063 25.0423 14.1663 24.529 14.1663 24.0001ZM3.49967 3.77786L14.1663 11.5556L24.833 3.77786V6.88897L14.1663 14.6667L3.49967 6.88897V3.77786ZM21.2863 28.6667L16.5663 23.1601L18.4463 20.9667L21.273 24.2645L26.9263 17.669L28.833 19.8623L21.2863 28.6667Z"
    fill="#044879"/>
</svg>
