<svg fill="none" height="29" viewBox="0 0 28 29" width="28" xmlns="http://www.w3.org/2000/svg">
  <path
    d="M23.876 4.57903C18.4796 -0.83698 9.49273 -0.853398 4.07683 4.54286C-1.34861 9.94863 -1.34538 18.936 4.05099 24.352C9.45646 29.7771 18.4144 29.7835 23.8398 24.3778C29.2557 18.9815 29.2819 10.0046 23.876 4.57903ZM11.0313 17.3953C7.48553 13.8367 5.32881 9.514 7.85692 6.99506L8.20705 6.6462C8.97536 5.88067 9.85873 5.83384 10.5462 6.73784C11.0687 7.45727 11.5718 8.1572 12.3466 9.30321C12.9567 10.1686 12.8 10.7116 12.1582 11.3709L11.5944 11.9517C11.4293 12.1162 11.4478 12.4078 11.5547 12.5922C11.8544 13.1071 12.5618 13.9532 13.5109 14.9057C14.4604 15.8586 15.3614 16.5688 15.8172 16.8703C16.0013 16.9779 16.2633 17.0459 16.4674 16.8425L17.0412 16.2708C17.7124 15.6219 18.2559 15.4871 19.1091 16.0903C20.3011 16.8984 20.9802 17.404 21.6779 17.9101C22.5794 18.6008 22.5198 19.4935 21.7606 20.2499L21.4109 20.5984C18.8732 23.1268 14.5581 20.9349 11.0317 17.3957"
    fill="#044879"/>
</svg>
