<svg fill="none" height="38" viewBox="0 0 43 43" width="43" xmlns="http://www.w3.org/2000/svg">
  <path clip-rule="evenodd"
    d="M28.6663 16.1252C28.6663 18.0259 27.9113 19.8488 26.5673 21.1928C25.2233 22.5368 23.4004 23.2918 21.4997 23.2918C19.599 23.2918 17.7761 22.5368 16.4321 21.1928C15.0881 19.8488 14.333 18.0259 14.333 16.1252C14.333 14.2244 15.0881 12.4016 16.4321 11.0576C17.7761 9.71355 19.599 8.9585 21.4997 8.9585C23.4004 8.9585 25.2233 9.71355 26.5673 11.0576C27.9113 12.4016 28.6663 14.2244 28.6663 16.1252ZM25.083 16.1252C25.083 17.0755 24.7055 17.987 24.0335 18.659C23.3615 19.331 22.45 19.7085 21.4997 19.7085C20.5493 19.7085 19.6379 19.331 18.9659 18.659C18.2939 17.987 17.9163 17.0755 17.9163 16.1252C17.9163 15.1748 18.2939 14.2634 18.9659 13.5914C19.6379 12.9194 20.5493 12.5418 21.4997 12.5418C22.45 12.5418 23.3615 12.9194 24.0335 13.5914C24.7055 14.2634 25.083 15.1748 25.083 16.1252Z"
    fill="#044879" fill-rule="evenodd"/>
  <path clip-rule="evenodd"
    d="M21.4998 1.79175C10.6155 1.79175 1.7915 10.6157 1.7915 21.5001C1.7915 32.3845 10.6155 41.2084 21.4998 41.2084C32.3842 41.2084 41.2082 32.3845 41.2082 21.5001C41.2082 10.6157 32.3842 1.79175 21.4998 1.79175ZM5.37484 21.5001C5.37484 25.2447 6.6523 28.6918 8.79334 31.4295C10.297 29.4549 12.2367 27.8547 14.4612 26.7538C16.6856 25.6529 19.1344 25.0813 21.6163 25.0834C24.0661 25.0811 26.4841 25.638 28.6861 26.7117C30.8881 27.7853 32.8159 29.3474 34.3228 31.279C35.8752 29.243 36.9204 26.8665 37.372 24.3463C37.8236 21.8261 37.6686 19.2346 36.9198 16.7862C36.171 14.3378 34.8499 12.1029 33.0659 10.2664C31.2819 8.42992 29.0862 7.04466 26.6605 6.22524C24.2348 5.40582 21.6489 5.1758 19.1167 5.5542C16.5844 5.9326 14.1787 6.90855 12.0985 8.4013C10.0184 9.89405 8.32358 11.8607 7.15437 14.1385C5.98516 16.4163 5.37516 18.9397 5.37484 21.5001ZM21.4998 37.6251C17.7982 37.6306 14.2082 36.3572 11.3375 34.0203C12.493 32.3661 14.031 31.0155 15.8206 30.0834C17.6102 29.1513 19.5985 28.6653 21.6163 28.6667C23.6089 28.6652 25.5732 29.139 27.3459 30.0489C29.1187 30.9588 30.6487 32.2785 31.8091 33.8984C28.9161 36.3113 25.267 37.6304 21.4998 37.6251Z"
    fill="#044879" fill-rule="evenodd"/>
</svg>
